<?xml version="1.0" encoding="utf-8"?>
<!-- Generator: Adobe Illustrator 23.0.1, SVG Export Plug-In . SVG Version: 6.00 Build 0)  -->
<svg version="1.1" id="Capa_1" xmlns="http://www.w3.org/2000/svg" xmlns:xlink="http://www.w3.org/1999/xlink" x="0px" y="0px"
	 viewBox="0 0 78 111" style="enable-background:new 0 0 78 111;" xml:space="preserve">
<style type="text/css">
	.st0{fill:#FFFFFF;}
	.st1{fill:#8B32C2;}
</style>
<g>
	<g>
		<g>
			<path class="st0" d="M39.1,0L39.1,0h-0.2C17.4,0,0,17.5,0,39c-0.6,36.6,39,72,39,72c0-0.1,0-0.1,0-0.2c0,0.1,0,0.1,0,0.2
				c0,0,39.6-35.4,39-72C78,17.5,60.6,0,39.1,0z"/>
			<path class="st1" d="M27.1,57.6H27c-0.6,1-1.4,1.7-2.3,2.1c-0.9,0.4-2,0.7-3.1,0.7c-0.8,0-1.5-0.1-2.3-0.3c-0.7-0.2-1.4-0.5-2-1
				c-0.6-0.4-1-0.9-1.4-1.6c-0.4-0.6-0.5-1.4-0.5-2.2c0-0.9,0.2-1.7,0.5-2.3c0.3-0.6,0.8-1.2,1.3-1.6c0.5-0.4,1.2-0.8,1.9-1
				c0.7-0.3,1.5-0.5,2.3-0.6s1.6-0.2,2.4-0.2s1.5-0.1,2.2-0.1h1.1V49c0-1.1-0.4-1.8-1.1-2.4c-0.7-0.5-1.6-0.8-2.8-0.8
				c-0.9,0-1.7,0.2-2.5,0.5s-1.4,0.7-2,1.3l-2.2-2.2c0.9-1,2-1.7,3.3-2.1c1.2-0.4,2.5-0.6,3.9-0.6c1.2,0,2.2,0.1,3,0.4
				c0.8,0.3,1.5,0.6,2,1s1,0.9,1.2,1.5c0.3,0.6,0.5,1.1,0.6,1.7c0.1,0.6,0.2,1.1,0.2,1.6s0,1,0,1.4V60h-3.8L27.1,57.6L27.1,57.6z
				 M26.9,52.3H26c-0.6,0-1.2,0-2,0.1c-0.7,0-1.4,0.2-2,0.3c-0.6,0.2-1.2,0.4-1.6,0.8c-0.4,0.3-0.7,0.8-0.7,1.4c0,0.4,0.1,0.7,0.3,1
				c0.2,0.3,0.4,0.5,0.7,0.7c0.3,0.2,0.6,0.3,0.9,0.4c0.4,0.1,0.7,0.1,1.1,0.1c1.4,0,2.5-0.3,3.2-1s1-1.6,1-2.8V52.3z"/>
			<path class="st1" d="M44.8,48.1c-0.5-0.5-1-0.9-1.5-1.2s-1.1-0.5-1.6-0.5c-0.8,0-1.5,0.1-2.1,0.4c-0.6,0.3-1.1,0.7-1.6,1.1
				c-0.4,0.5-0.8,1-1,1.6s-0.3,1.2-0.3,1.9s0.1,1.3,0.3,1.9c0.2,0.6,0.5,1.1,1,1.6c0.4,0.5,1,0.8,1.6,1.1s1.3,0.4,2.1,0.4
				c0.7,0,1.3-0.1,1.8-0.4c0.6-0.3,1-0.7,1.4-1.2l2.8,3c-0.4,0.4-0.9,0.8-1.5,1.1c-0.5,0.3-1.1,0.6-1.7,0.7c-0.5,0.4-1,0.5-1.5,0.6
				c-0.5,0.1-1,0.1-1.3,0.1c-1.3,0-2.5-0.2-3.6-0.6c-1.1-0.4-2.1-1-2.9-1.8c-0.8-0.8-1.5-1.7-1.9-2.8c-0.5-1.1-0.7-2.3-0.7-3.6
				s0.2-2.5,0.7-3.6s1.1-2,1.9-2.8c0.8-0.8,1.8-1.4,2.9-1.8c1.1-0.4,2.3-0.6,3.6-0.6c1.1,0,2.2,0.2,3.2,0.6c1.1,0.4,2,1.1,2.9,2
				L44.8,48.1z"/>
			<path class="st1" d="M59.7,57.6L59.7,57.6c-0.7,1-1.5,1.7-2.4,2.1c-0.9,0.4-2,0.7-3.1,0.7c-0.8,0-1.5-0.1-2.3-0.3
				c-0.7-0.2-1.4-0.5-2-1c-0.6-0.4-1-0.9-1.4-1.6c-0.3-0.6-0.5-1.4-0.5-2.2c0-0.9,0.2-1.7,0.5-2.3s0.8-1.2,1.3-1.6
				c0.5-0.4,1.2-0.8,1.9-1c0.7-0.3,1.5-0.5,2.3-0.6s1.6-0.2,2.4-0.2c0.8,0,1.5-0.1,2.2-0.1h1.1V49c0-1.1-0.4-1.8-1.1-2.4
				c-0.7-0.5-1.6-0.8-2.8-0.8c-0.9,0-1.7,0.2-2.5,0.5s-1.4,0.7-2,1.3l-2.2-2.2c0.9-1,2-1.7,3.3-2.1c1.2-0.4,2.5-0.6,3.9-0.6
				c1.2,0,2.2,0.1,3,0.4c0.8,0.3,1.5,0.6,2,1s1,0.9,1.2,1.5c0.3,0.6,0.5,1.1,0.6,1.7c0.1,0.6,0.2,1.1,0.2,1.6s0,1,0,1.4V60h-3.8
				L59.7,57.6L59.7,57.6z M59.4,52.3h-0.9c-0.6,0-1.2,0-2,0.1c-0.7,0-1.4,0.2-2,0.3c-0.6,0.2-1.2,0.4-1.6,0.8
				c-0.4,0.3-0.7,0.8-0.7,1.4c0,0.4,0.1,0.7,0.3,1s0.4,0.5,0.7,0.7s0.6,0.3,0.9,0.4c0.3,0.1,0.7,0.1,1.1,0.1c1.4,0,2.5-0.3,3.2-1
				s1-1.6,1-2.8V52.3z M58,35h4.8l-4.9,5.1h-3.3L58,35z"/>
			<path class="st1" d="M18.8,32.5c0.1,1.3,0.6,2.3,1.5,3c0.8,0.7,1.9,1.1,3,1.1s1.9-0.2,2.6-0.6c0.7-0.4,1.3-1,1.9-1.6l3,2.3
				c-1,1.2-2.1,2.1-3.3,2.6c-1.2,0.5-2.5,0.8-3.8,0.8s-2.5-0.2-3.6-0.6c-1.1-0.4-2.1-1-2.9-1.8s-1.5-1.7-1.9-2.8
				c-0.5-1.1-0.7-2.3-0.7-3.6c0-1.3,0.2-2.5,0.7-3.6s1.1-2,1.9-2.8s1.8-1.4,2.9-1.8s2.3-0.6,3.6-0.6c1.2,0,2.2,0.2,3.2,0.6
				s1.8,1,2.5,1.8s1.2,1.7,1.6,2.9c0.4,1.1,0.6,2.4,0.6,3.9v1.2L18.8,32.5L18.8,32.5z M27.4,29.3c0-1.2-0.4-2.2-1.2-2.9
				c-0.7-0.7-1.8-1.1-3.1-1.1c-1.3,0-2.3,0.4-3,1.1s-1.2,1.7-1.3,2.9H27.4z"/>
			<path class="st1" d="M42.4,27.3c-0.8-1.1-1.9-1.7-3.3-1.7c-0.6,0-1.1,0.1-1.6,0.4s-0.8,0.7-0.8,1.4c0,0.5,0.2,0.9,0.7,1.1
				c0.4,0.2,1,0.4,1.7,0.6s1.4,0.3,2.2,0.5s1.5,0.4,2.2,0.8s1.2,0.9,1.7,1.5c0.4,0.6,0.7,1.5,0.7,2.6c0,1-0.2,1.9-0.6,2.5
				c-0.4,0.7-1,1.2-1.7,1.7c-0.7,0.4-1.5,0.7-2.3,0.9c-0.9,0.2-1.7,0.3-2.6,0.3c-1.3,0-2.5-0.2-3.6-0.6c-1.1-0.4-2.1-1.1-2.9-2
				l2.8-2.6c0.5,0.6,1.1,1.1,1.7,1.5c0.6,0.4,1.4,0.6,2.3,0.6c0.3,0,0.6,0,0.9-0.1c0.3-0.1,0.6-0.2,0.9-0.4c0.3-0.2,0.5-0.4,0.7-0.6
				c0.2-0.2,0.3-0.5,0.3-0.9c0-0.6-0.2-1-0.7-1.3c-0.4-0.3-1-0.5-1.7-0.7s-1.4-0.3-2.2-0.5s-1.5-0.4-2.2-0.7
				c-0.7-0.3-1.2-0.8-1.7-1.4c-0.4-0.6-0.7-1.5-0.7-2.5c0-0.9,0.2-1.8,0.6-2.4c0.4-0.7,0.9-1.3,1.5-1.7c0.6-0.4,1.4-0.8,2.2-1
				s1.6-0.3,2.5-0.3c1.1,0,2.2,0.2,3.3,0.6s2,1.1,2.7,2L42.4,27.3z"/>
			<path class="st1" d="M39,102.4c0,0,0-0.1,0-0.2C39,102.3,39,102.3,39,102.4c0,0,5.3-4.6,11.9-12.3H27.1
				C33.7,97.7,39,102.4,39,102.4z"/>
		</g>
	</g>
</g>
</svg>
