<?xml version="1.0" encoding="utf-8"?>
<!-- Generator: Adobe Illustrator 23.0.1, SVG Export Plug-In . SVG Version: 6.00 Build 0)  -->
<svg version="1.1" id="Capa_1" xmlns="http://www.w3.org/2000/svg" xmlns:xlink="http://www.w3.org/1999/xlink" x="0px" y="0px"
	 viewBox="0 0 83.5 40.3" style="enable-background:new 0 0 83.5 40.3;" xml:space="preserve">
<style type="text/css">
	.st0{fill:#8B32C2;}
</style>
<g>
	<path class="st0" d="M58.9,12.5c0.4-0.5,0.9-0.8,1.5-1.1c0.6-0.3,1.3-0.4,2-0.4c0.5,0,1.1,0.2,1.6,0.4s1,0.7,1.5,1.2l2.8-2.8
		c-0.8-0.9-1.7-1.5-2.8-1.9s-2.1-0.6-3.1-0.6c-1.2,0-2.4,0.2-3.4,0.6c-1.1,0.4-2,1-2.8,1.7c-0.8,0.8-1.4,1.6-1.9,2.7
		c-0.5,1-0.7,2.2-0.7,3.5c0,1.3,0.2,2.5,0.7,3.5c0.5,1,1.1,2,1.9,2.7c0.8,0.7,1.7,1.3,2.8,1.7c0.1,0,0.3,0.1,0.4,0.1v9h-2.7l4.3,7.4
		l4.3-7.4h-2.7v-8.6c0.3,0,0.7,0,1.2-0.1c0.5-0.1,1-0.2,1.6-0.4c0.5-0.2,1.1-0.4,1.6-0.7c0.5-0.3,1-0.6,1.4-1l-2.7-2.9
		c-0.4,0.5-0.9,0.9-1.4,1.1c-0.5,0.3-1.1,0.4-1.8,0.4c-0.8,0-1.4-0.1-2-0.4c-0.6-0.3-1.1-0.6-1.5-1.1c-0.4-0.5-0.7-1-0.9-1.5
		c-0.2-0.6-0.3-1.2-0.3-1.8s0.1-1.2,0.3-1.8C58.2,13.4,58.5,12.9,58.9,12.5z"/>
	<path class="st0" d="M51.8,11.7c-0.1-0.5-0.3-1.1-0.6-1.6c-0.3-0.5-0.7-1-1.2-1.4c-0.5-0.4-1.2-0.7-2-1c-0.8-0.3-1.8-0.4-2.9-0.4
		c-1.3,0-2.5,0.2-3.7,0.6c-1.2,0.4-2.3,1.1-3.2,2l2.1,2.1c0.5-0.5,1.2-0.9,1.9-1.2c0.7-0.3,1.5-0.5,2.4-0.5c1.1,0,2,0.2,2.7,0.8
		c0.7,0.5,1.1,1.3,1.1,2.3v0.4h-1c-0.7,0-1.4,0-2.2,0c-0.8,0-1.5,0.1-2.3,0.2c-0.8,0.1-1.5,0.3-2.2,0.6s-1.3,0.6-1.8,1
		c-0.5,0.4-1,0.9-1.3,1.6c-0.3,0.6-0.5,1.4-0.5,2.2c0,0.8,0.2,1.5,0.5,2.1c0.3,0.6,0.8,1.1,1.3,1.5c0.6,0.4,1.2,0.7,1.9,0.9
		c0.7,0.2,1.4,0.3,2.2,0.3c1.1,0,2.1-0.2,3-0.6c0.9-0.4,1.6-1.1,2.2-2h0.1v2.2H52v-9.3c0-0.4,0-0.8,0-1.3
		C52,12.8,51.9,12.2,51.8,11.7z M48.2,17.6c0,1.1-0.3,2.1-1,2.7c-0.7,0.7-1.7,1-3.1,1c-0.3,0-0.7,0-1-0.1c-0.3-0.1-0.6-0.2-0.9-0.4
		c-0.3-0.2-0.5-0.4-0.7-0.7c-0.2-0.3-0.2-0.6-0.2-1c0-0.6,0.2-1,0.6-1.4c0.4-0.3,1-0.6,1.6-0.7s1.3-0.3,2-0.3c0.7,0,1.3-0.1,1.9-0.1
		h0.8V17.6z"/>
	<path class="st0" d="M83.4,13.3c0-0.5-0.1-1-0.2-1.6c-0.1-0.5-0.3-1.1-0.6-1.6c-0.3-0.5-0.7-1-1.2-1.4c-0.5-0.4-1.2-0.7-2-1
		c-0.8-0.3-1.8-0.4-2.9-0.4c-1.3,0-2.5,0.2-3.8,0.6c-1.2,0.4-2.3,1.1-3.2,2l2.1,2.1c0.5-0.5,1.2-0.9,1.9-1.2
		c0.7-0.3,1.5-0.5,2.4-0.5c1.1,0,2,0.2,2.7,0.8c0.7,0.5,1,1.3,1,2.3v0.4h-1c-0.7,0-1.4,0-2.2,0c-0.8,0-1.5,0.1-2.3,0.2
		c-0.8,0.1-1.5,0.3-2.2,0.6s-1.3,0.6-1.8,1c-0.5,0.4-1,0.9-1.3,1.6s-0.5,1.4-0.5,2.2c0,0.8,0.2,1.5,0.5,2.1c0.3,0.6,0.8,1.1,1.3,1.5
		c0.5,0.4,1.2,0.7,1.9,0.9c0.7,0.2,1.4,0.3,2.2,0.3c1.1,0,2.1-0.2,3-0.6c0.9-0.4,1.6-1.1,2.2-2h0.1v2.2h3.6v-9.3
		C83.5,14.2,83.5,13.8,83.4,13.3z M79.6,17.6c0,1.2-0.3,2.1-1,2.7c-0.7,0.7-1.7,1-3.1,1c-0.3,0-0.7,0-1-0.1
		c-0.3-0.1-0.6-0.2-0.9-0.4c-0.3-0.2-0.5-0.4-0.7-0.7c-0.2-0.3-0.2-0.6-0.2-1c0-0.6,0.2-1,0.6-1.4c0.4-0.3,1-0.6,1.6-0.7
		c0.6-0.2,1.3-0.3,2-0.3c0.7-0.1,1.3-0.1,1.9-0.1h0.8V17.6z"/>
	<polygon class="st0" points="82.8,0 78.2,0 74.9,4.9 78.1,4.9 	"/>
	<path class="st0" d="M14.3,9.6c-0.7-0.7-1.5-1.3-2.4-1.7s-2-0.6-3.1-0.6c-1.2,0-2.4,0.2-3.5,0.6c-1.1,0.4-2,1-2.8,1.7
		c-0.8,0.8-1.4,1.6-1.9,2.7c-0.5,1-0.7,2.2-0.7,3.5c0,1.3,0.2,2.4,0.7,3.5c0.5,1,1.1,1.9,1.9,2.7c0.8,0.7,1.7,1.3,2.8,1.7
		c1.1,0.4,2.2,0.6,3.4,0.6c1.3,0,2.5-0.2,3.7-0.7c1.2-0.5,2.2-1.3,3.2-2.5l-2.9-2.2c-0.5,0.6-1.1,1.2-1.8,1.6
		c-0.7,0.4-1.5,0.6-2.5,0.6c-1.2,0-2.1-0.3-2.9-1c-0.8-0.7-1.3-1.6-1.4-2.8h12.4v-1.1c0-1.4-0.2-2.7-0.6-3.8
		C15.5,11.3,15,10.3,14.3,9.6z M12.4,14.2H4.1c0.2-1.2,0.6-2.1,1.3-2.8c0.7-0.7,1.7-1,2.9-1c1.3,0,2.3,0.3,3,1
		C12,12.1,12.4,13,12.4,14.2L12.4,14.2z"/>
	<path class="st0" d="M27.8,15.2c-0.6-0.4-1.3-0.6-2.1-0.8c-0.8-0.2-1.5-0.3-2.1-0.5c-0.7-0.1-1.2-0.3-1.6-0.6
		c-0.4-0.2-0.6-0.6-0.6-1.1c0-0.6,0.3-1.1,0.8-1.3c0.5-0.3,1.1-0.4,1.6-0.4c1.3,0,2.4,0.6,3.2,1.7l2.7-2.4C28.9,8.9,28,8.2,27,7.9
		s-2.1-0.6-3.2-0.6c-0.8,0-1.6,0.1-2.4,0.3c-0.8,0.2-1.5,0.5-2.1,1c-0.6,0.4-1.1,1-1.5,1.6s-0.6,1.5-0.6,2.3c0,1,0.2,1.9,0.6,2.4
		c0.4,0.6,1,1,1.6,1.4c0.6,0.3,1.4,0.6,2.1,0.7s1.5,0.3,2.1,0.5c0.7,0.2,1.2,0.4,1.6,0.7c0.4,0.3,0.6,0.7,0.6,1.2
		c0,0.3-0.1,0.6-0.2,0.8c-0.2,0.2-0.4,0.4-0.7,0.6c-0.3,0.2-0.6,0.3-0.9,0.3c-0.3,0.1-0.6,0.1-0.9,0.1c-0.9,0-1.6-0.2-2.2-0.6
		c-0.6-0.4-1.1-0.8-1.7-1.4l-2.7,2.5c0.8,1,1.8,1.6,2.8,2s2.2,0.5,3.5,0.5c0.8,0,1.7-0.1,2.5-0.3c0.8-0.2,1.6-0.5,2.2-0.9
		c0.7-0.4,1.2-0.9,1.6-1.6c0.4-0.7,0.6-1.5,0.6-2.5c0-1.1-0.2-1.9-0.6-2.5C29,16,28.4,15.5,27.8,15.2z"/>
</g>
</svg>
